<svg width="38" height="38" viewBox="0 0 38 38" fill="none" xmlns="http://www.w3.org/2000/svg">
<path fill-rule="evenodd" clip-rule="evenodd" d="M19 38C29.4937 38 38 29.4937 38 19C38 8.5063 29.4937 0 19 0C8.5063 0 0 8.5063 0 19C0 29.4937 8.5063 38 19 38ZM24.7 15.2C24.7 16.7117 24.0995 18.1616 23.0305 19.2305C21.9616 20.2995 20.5117 20.9 19 20.9C17.4883 20.9 16.0385 20.2995 14.9695 19.2305C13.9005 18.1616 13.3 16.7117 13.3 15.2C13.3 13.6883 13.9005 12.2385 14.9695 11.1695C16.0385 10.1005 17.4883 9.5 19 9.5C20.5117 9.5 21.9616 10.1005 23.0305 11.1695C24.0995 12.2385 24.7 13.6883 24.7 15.2ZM7.6 28.5C8.92622 26.729 10.6472 25.2917 12.6261 24.3022C14.605 23.3127 16.7875 22.7984 19 22.8C21.2125 22.7984 23.395 23.3127 25.3739 24.3022C27.3528 25.2917 29.0738 26.729 30.4 28.5C29.0738 30.271 27.3528 31.7083 25.3739 32.6978C23.395 33.6873 21.2125 34.2016 19 34.2C16.7875 34.2016 14.605 33.6873 12.6261 32.6978C10.6472 31.7083 8.92622 30.271 7.6 28.5Z" fill="black"/>
</svg>
